<svg version="1.1" id="Layer_1" xmlns="http://www.w3.org/2000/svg" xmlns:xlink="http://www.w3.org/1999/xlink" x="0px" y="0px"
	 width="100%" viewBox="0 0 512 512" enable-background="new 0 0 512 512" xml:space="preserve">
<path fill="#000000" opacity="1.000000" stroke="none" 
	d="
M513.000000,235.000000 
	C513.000000,249.687561 513.000000,264.375122 512.603394,279.681885 
	C511.804993,283.202576 511.254303,286.092377 511.026367,289.007446 
	C509.786224,304.869293 506.029907,320.197144 501.272034,335.308105 
	C495.036469,355.112244 486.810547,373.951416 476.188721,391.909668 
	C466.053802,409.044708 454.794861,425.278076 440.855682,439.344025 
	C429.085144,451.221558 416.481476,462.397125 403.396851,472.816315 
	C388.385406,484.769806 371.539001,493.988800 353.625427,501.013428 
	C342.841736,505.242157 331.881104,509.019714 321.000000,513.000000 
	C319.933319,513.000000 318.866669,513.000000 317.399994,512.531372 
	C316.666656,474.323303 316.633057,436.576752 315.727448,398.851105 
	C315.561768,391.948608 312.586151,384.782196 309.560547,378.373627 
	C306.582306,372.065399 301.892120,366.565399 297.518066,360.064178 
	C300.351471,359.651215 302.710266,359.454254 305.001495,358.950165 
	C322.772736,355.040222 340.049347,349.750336 355.927612,340.572601 
	C369.574066,332.684906 381.055573,322.233887 389.765625,309.265106 
	C397.637512,297.544403 403.224487,284.656982 406.296844,270.583862 
	C410.472626,251.456528 409.982086,232.788727 404.040955,214.191101 
	C399.545258,200.118164 391.891357,187.704910 384.045715,175.352112 
	C382.966644,173.653046 382.792999,170.988586 383.071106,168.886307 
	C384.195251,160.389145 387.127167,151.853836 386.652313,143.488083 
	C385.957031,131.238159 382.911072,119.121658 380.782471,106.445938 
	C373.148743,107.690384 366.445465,107.548157 360.825928,109.945847 
	C347.445679,115.654770 334.490082,122.394600 321.549133,129.078445 
	C316.869751,131.495300 312.752228,133.550476 307.060120,132.130325 
	C296.894745,129.594162 286.570343,127.216293 276.173706,126.220840 
	C265.768433,125.224564 255.129028,125.270233 244.709488,126.188972 
	C232.309433,127.282333 219.996246,129.581543 207.724701,131.797455 
	C203.135574,132.626114 199.216446,133.086838 194.819321,130.510513 
	C184.151672,124.260239 173.481979,117.782700 162.140060,112.989258 
	C153.551941,109.359650 143.925385,108.187195 133.674561,105.652649 
	C131.268814,117.905357 128.033966,128.688477 127.357338,139.629776 
	C126.817070,148.366211 128.878113,157.408524 130.790207,166.093674 
	C131.829453,170.814240 131.507736,174.520981 128.479614,178.002411 
	C119.406487,188.433792 114.080521,200.962585 110.260651,213.850845 
	C104.506149,233.266571 104.031357,253.400772 108.253990,273.125702 
	C112.302322,292.036438 121.748108,308.640411 135.215073,322.628662 
	C152.206223,340.277527 173.620102,350.022888 196.984375,355.969879 
	C203.289932,357.574860 209.688980,358.812439 216.634674,360.349091 
	C208.936676,370.589508 201.195435,380.200165 199.457642,392.487091 
	C198.720932,397.695862 195.660614,397.999969 192.239532,398.981171 
	C191.169617,399.288025 190.048386,399.446747 188.939514,399.582245 
	C175.869507,401.179199 166.055130,399.661255 156.947174,387.804688 
	C149.654587,378.311340 144.040909,367.477173 133.880829,360.266541 
	C123.436050,352.853943 112.570175,347.448242 98.829376,349.359863 
	C99.561829,355.932922 100.897133,362.393005 100.816650,368.835449 
	C100.744392,374.619446 101.471336,377.808136 108.231506,378.978241 
	C117.190422,380.528961 122.191589,388.116852 126.935783,395.114807 
	C133.153290,404.285889 139.444290,413.283112 148.937042,419.439392 
	C159.706207,426.423431 171.374619,430.067841 184.332520,429.016296 
	C188.474411,428.680176 192.631134,428.526703 197.000000,428.277161 
	C197.000000,456.716919 197.000000,484.858459 197.000000,513.000000 
	C195.933334,513.000000 194.866653,513.000000 193.273590,512.622559 
	C189.031311,511.234741 185.265106,510.379028 181.607727,509.188934 
	C156.828690,501.126038 133.904190,489.517456 112.625702,474.360870 
	C92.104515,459.743744 74.162102,442.456055 58.621414,422.862366 
	C43.591400,403.912476 31.158606,383.195984 21.946186,360.676544 
	C13.517704,340.073334 6.818846,319.017792 3.929848,296.846680 
	C3.407572,292.838562 1.999255,288.945953 0.999999,285.000000 
	C1.000000,266.645782 1.000000,248.291550 1.383943,229.334503 
	C2.844594,222.521027 3.916188,216.309494 4.998942,210.099884 
	C8.604823,189.420166 15.044910,169.635925 23.822994,150.592636 
	C33.403816,129.807877 45.686138,110.813690 60.202190,93.068542 
	C72.366417,78.198380 86.194618,65.184143 101.223564,53.478874 
	C118.163010,40.285610 136.659515,29.463108 156.503387,21.140772 
	C178.114395,12.077309 200.380096,5.338995 223.822189,2.958680 
	C227.575714,2.577545 231.275421,1.666221 235.000000,1.000000 
	C249.354233,1.000000 263.708466,1.000000 278.688507,1.401477 
	C287.543396,2.868087 295.808807,3.710141 303.994415,5.042302 
	C324.395386,8.362449 343.923523,14.769914 362.629456,23.370918 
	C381.714020,32.146019 399.418518,43.202457 416.040100,56.251289 
	C432.842712,69.442238 447.530396,84.541580 460.546539,101.254555 
	C473.734222,118.187767 484.549622,136.684494 492.867432,156.519745 
	C501.927368,178.124725 508.589050,200.408844 511.039703,223.826035 
	C511.432373,227.577972 512.333801,231.276688 513.000000,235.000000 
z"/>
<path fill="#FFFFFF" opacity="1.000000" stroke="none" 
	d="
M197.468658,513.000000 
	C197.000000,484.858459 197.000000,456.716919 197.000000,428.277161 
	C192.631134,428.526703 188.474411,428.680176 184.332520,429.016296 
	C171.374619,430.067841 159.706207,426.423431 148.937042,419.439392 
	C139.444290,413.283112 133.153290,404.285889 126.935783,395.114807 
	C122.191589,388.116852 117.190422,380.528961 108.231506,378.978241 
	C101.471336,377.808136 100.744392,374.619446 100.816650,368.835449 
	C100.897133,362.393005 99.561829,355.932922 98.829376,349.359863 
	C112.570175,347.448242 123.436050,352.853943 133.880829,360.266541 
	C144.040909,367.477173 149.654587,378.311340 156.947174,387.804688 
	C166.055130,399.661255 175.869507,401.179199 188.939514,399.582245 
	C190.048386,399.446747 191.169617,399.288025 192.239532,398.981171 
	C195.660614,397.999969 198.720932,397.695862 199.457642,392.487091 
	C201.195435,380.200165 208.936676,370.589508 216.634674,360.349091 
	C209.688980,358.812439 203.289932,357.574860 196.984375,355.969879 
	C173.620102,350.022888 152.206223,340.277527 135.215073,322.628662 
	C121.748108,308.640411 112.302322,292.036438 108.253990,273.125702 
	C104.031357,253.400772 104.506149,233.266571 110.260651,213.850845 
	C114.080521,200.962585 119.406487,188.433792 128.479614,178.002411 
	C131.507736,174.520981 131.829453,170.814240 130.790207,166.093674 
	C128.878113,157.408524 126.817070,148.366211 127.357338,139.629776 
	C128.033966,128.688477 131.268814,117.905357 133.674561,105.652649 
	C143.925385,108.187195 153.551941,109.359650 162.140060,112.989258 
	C173.481979,117.782700 184.151672,124.260239 194.819321,130.510513 
	C199.216446,133.086838 203.135574,132.626114 207.724701,131.797455 
	C219.996246,129.581543 232.309433,127.282333 244.709488,126.188972 
	C255.129028,125.270233 265.768433,125.224564 276.173706,126.220840 
	C286.570343,127.216293 296.894745,129.594162 307.060120,132.130325 
	C312.752228,133.550476 316.869751,131.495300 321.549133,129.078445 
	C334.490082,122.394600 347.445679,115.654770 360.825928,109.945847 
	C366.445465,107.548157 373.148743,107.690384 380.782471,106.445938 
	C382.911072,119.121658 385.957031,131.238159 386.652313,143.488083 
	C387.127167,151.853836 384.195251,160.389145 383.071106,168.886307 
	C382.792999,170.988586 382.966644,173.653046 384.045715,175.352112 
	C391.891357,187.704910 399.545258,200.118164 404.040955,214.191101 
	C409.982086,232.788727 410.472626,251.456528 406.296844,270.583862 
	C403.224487,284.656982 397.637512,297.544403 389.765625,309.265106 
	C381.055573,322.233887 369.574066,332.684906 355.927612,340.572601 
	C340.049347,349.750336 322.772736,355.040222 305.001495,358.950165 
	C302.710266,359.454254 300.351471,359.651215 297.518066,360.064178 
	C301.892120,366.565399 306.582306,372.065399 309.560547,378.373627 
	C312.586151,384.782196 315.561768,391.948608 315.727448,398.851105 
	C316.633057,436.576752 316.666656,474.323303 317.000000,512.531372 
	C277.312439,513.000000 237.624878,513.000000 197.468658,513.000000 
z"/>
<path fill="#FFFFFF" opacity="1.000000" stroke="none" 
	d="
M513.000000,234.531342 
	C512.333801,231.276688 511.432373,227.577972 511.039703,223.826035 
	C508.589050,200.408844 501.927368,178.124725 492.867432,156.519745 
	C484.549622,136.684494 473.734222,118.187767 460.546539,101.254555 
	C447.530396,84.541580 432.842712,69.442238 416.040100,56.251289 
	C399.418518,43.202457 381.714020,32.146019 362.629456,23.370918 
	C343.923523,14.769914 324.395386,8.362449 303.994415,5.042302 
	C295.808807,3.710141 287.543396,2.868087 279.157166,1.401477 
	C356.927032,1.000000 434.854095,1.000000 513.000000,1.000000 
	C513.000000,78.687424 513.000000,156.375061 513.000000,234.531342 
z"/>
<path fill="#FFFFFF" opacity="1.000000" stroke="none" 
	d="
M234.531342,1.000000 
	C231.275421,1.666221 227.575714,2.577545 223.822189,2.958680 
	C200.380096,5.338995 178.114395,12.077309 156.503387,21.140772 
	C136.659515,29.463108 118.163010,40.285610 101.223564,53.478874 
	C86.194618,65.184143 72.366417,78.198380 60.202190,93.068542 
	C45.686138,110.813690 33.403816,129.807877 23.822994,150.592636 
	C15.044910,169.635925 8.604823,189.420166 4.998942,210.099884 
	C3.916188,216.309494 2.844594,222.521027 1.383943,228.865845 
	C1.000000,153.072006 1.000000,77.144012 1.000000,1.000000 
	C78.687431,1.000000 156.375061,1.000000 234.531342,1.000000 
z"/>
<path fill="#FFFFFF" opacity="1.000000" stroke="none" 
	d="
M321.468658,513.000000 
	C331.881104,509.019714 342.841736,505.242157 353.625427,501.013428 
	C371.539001,493.988800 388.385406,484.769806 403.396851,472.816315 
	C416.481476,462.397125 429.085144,451.221558 440.855682,439.344025 
	C454.794861,425.278076 466.053802,409.044708 476.188721,391.909668 
	C486.810547,373.951416 495.036469,355.112244 501.272034,335.308105 
	C506.029907,320.197144 509.786224,304.869293 511.026367,289.007446 
	C511.254303,286.092377 511.804993,283.202576 512.603394,280.150574 
	C513.000000,357.586639 513.000000,435.173309 513.000000,513.000000 
	C449.312653,513.000000 385.624969,513.000000 321.468658,513.000000 
z"/>
<path fill="#FFFFFF" opacity="1.000000" stroke="none" 
	d="
M0.999999,285.468658 
	C1.999255,288.945953 3.407572,292.838562 3.929848,296.846680 
	C6.818846,319.017792 13.517704,340.073334 21.946186,360.676544 
	C31.158606,383.195984 43.591400,403.912476 58.621414,422.862366 
	C74.162102,442.456055 92.104515,459.743744 112.625702,474.360870 
	C133.904190,489.517456 156.828690,501.126038 181.607727,509.188934 
	C185.265106,510.379028 189.031311,511.234741 192.873596,512.622559 
	C129.066711,513.000000 65.133438,513.000000 1.000000,513.000000 
	C1.000000,437.312561 1.000000,361.624939 0.999999,285.468658 
z"/>
</svg>